<svg xmlns="http://www.w3.org/2000/svg" width="2666.667" height="2666.667" viewBox="0 0 2000 2000" preserveAspectRatio="xMidYMid meet" xmlns:v="https://vecta.io/nano"><path d="M1398 541.1c-11.8 3-19.5 7.4-28.1 15.9-8.8 8.8-13.9 17.9-16.5 29.7-.9 4.3-1.7 7.9-1.8 8s-8.5 1.6-18.6 3.3c-70.4 11.9-139.8 32.2-205.7 60.4-16.6 7.1-21.4 7.4-31.3 2.2-3.6-1.9-8.4-3.9-10.8-4.6-2.7-.7-5.9-2.7-8.5-5.2-12-11.7-30.7-18.5-46.7-17.1l-102 10.8c-9.9 2.6-18 7.5-26.1 15.6-9.6 9.4-14.1 18.2-17.3 33.7l-2.2 10.7-35.9 13.3c-19.7 7.3-37.9 14.4-40.4 15.9-6.5 3.8-15.7 12.8-20.3 19.7-4.6 7.1-8.4 18.6-9.3 28.4-.4 4-1.2 7.2-1.6 7.2-.5 0-18.1-5-39.2-11.2-36.6-10.7-38.6-11.2-47.7-11.2-5.2 0-10.7.3-12.1.7l-2.7.7-.7-13.8c-.3-7.5-1.3-16.8-2-20.5-4.1-20.3-20.1-38.1-40.1-44.7-4-1.4-7.6-3.5-10.4-6.1-6.3-6-13.9-10.7-22.1-13.7l-7.4-2.7-52.8-.2-52.9-.1-3.7-2.5c-14.3-9.5-32.1-12.9-47.7-9.2-8.2 1.9-130.4 54.6-137.4 59.2-11.4 7.6-20.4 19.8-24.5 33.3-.9 3.3-8.1 66.2-18 158.5L237 1059.6c0 .7-1.2 1.5-2.7 1.9-5.3 1.2-15.4 7.7-21.2 13.3-4.3 4.3-23.1 32.4-77.6 115.7l-75.6 116c-12 19.2-12.3 43.9-.7 63.2 4.6 7.6 137.5 149.4 144.8 154.4 3 2.1 8.9 5.1 13 6.6 5.5 1.9 9.1 4.1 13.5 8 6.6 5.9 18.9 12.3 27.5 14.4 14.2 3.4 33.2.1 45.6-7.9 12.9-8.4 13.3-9 80.3-123l62.7-106.2c.2 0 3.6 3.3 7.6 7.3 8.2 8.2 13.7 11.8 23.6 15.3 4.8 1.7 8.2 3.7 12.2 7.4 6.8 6.3 18.6 12.4 28.2 14.4 5.3 1.1 31.5 2.5 93.7 5.1l96.5 3.6c18.3 0 30.5-4.9 43.2-17.6 9.4-9.3 14.5-18.4 17-30.5 3.1-14.5 2.3-18.1-14.5-69.5l-14.7-46.2c.2-.2 2.8 1.2 5.7 3.2 18.1 11.9 45.9 11.8 64.1-.2 3.1-2.1 11.4-9.2 18.4-15.7l12.7-11.9 2.1 2.9c9.6 13.3 28.4 32.4 46 46.8 67.6 55.1 165.6 89.6 280.2 98.5l12.1 1 8.2 5.5c11.5 7.9 19.2 10.1 34.6 10 14.5 0 20.7-1.9 33.5-9.9 8.4-5.2 8.6-5.3 18.5-5.9 106-7.2 208.2-32.3 306-75.2 22.5-9.9 66.4-32.5 83.7-43.2l3.4-2.1 28.7 36.4c15.8 20 31 38.3 33.7 40.8 5.4 4.9 16.3 10.9 22.8 12.7 2.7.7 5.8 2.6 8.3 5.1 10.7 10.7 23 15.9 39.4 16.6 13 .6 20.3-.9 30.9-6.5 17.3-9 28.7-25.6 31.7-45.8 2-13.3 1.3-15.9-28.1-97.5l-27.1-75 6.9-7.7c43-48.1 74.4-107.5 85.2-160.9 4.2-21.4 5.3-34.4 4.7-57.1-.5-22.1-2.8-37.3-8.2-56.2l-3.3-11.4 21.5-25.9c11.8-14.2 22.9-28.2 24.7-31 13.9-21.9 11.4-51.6-6-71.5-5.9-6.7-17.9-14.7-26.1-17.2-5.1-1.6-7.9-3.2-12.4-7.4-11.6-10.8-26.9-16.2-43.4-15.3-13.6.6-18.5 2.6-45.9 18.6-12.5 7.3-23.1 13.1-23.4 12.9-.4-.2-6.8-4-14.4-8.5-27.1-16.3-54.1-28.4-88.3-39.8-51.5-17.2-104-26.8-166.2-30.5l-17.2-1-7.8-7.8c-8.6-8.7-14-12.3-24.1-15.8-4.8-1.7-8.2-3.7-12.2-7.4-10.2-9.5-27.3-16-41.5-15.9-3.3 0-9.4.9-13.5 2zm25.3 13.4c7.3 1.9 14.1 5.4 19.2 9.8 2.2 1.9 42.3 51 89 109l85.7 105.6c.4.1 49.4-28.4 109-63.1l114.8-65.5c18.1-6.3 40.3.6 51.6 15.9 6.8 9.3 8.8 15.4 8.8 27.8.1 11.5-1.7 17.7-7.2 25.8-1.5 2.2-43 52.4-92.2 111.6l-89.8 108.5c-.2.5 23.2 65.8 51.8 145.2l52.7 152.4c.7 9.5-.6 16.4-4.4 24.2-13.5 27.4-50.6 34.3-72.6 13.4-2.8-2.7-42.3-52-87.7-109.5l-84-104.2c-.8.2-81.1 55.4-178.5 122.7l-183 124.9c-5.3 2.2-7.4 2.5-17.5 2.5-10.9 0-11.9-.2-18.3-3.2-13.1-6.2-21.8-16.1-25.8-29.5-3.8-12.4-1.4-27.8 5.9-38.6 1.5-2.2 30.1-33.2 63.5-68.7l60.9-64.7-29.9-16.5c-16.4-9.1-31.7-18-34-19.9s-5.9-6.1-8-9.4l-3.8-5.9h-12.6l-12.7-.1-1.3 3.2c-1.9 4.7-12.6 15.1-18.4 18-15.1 7.6-218 97-223 98.3-18.2 4.7-38.8-3.2-49.2-18.9-1.7-2.5-9-19.3-16.4-37.4l-13.4-32.9-2.5 7.7c-1.4 4.2-3.8 9.6-5.5 12-2.5 3.6-29.6 29.5-67.9 64.9-11.8 10.9-25.6 15.5-39.7 13.4-11.8-1.9-17.5-5.4-39.6-24.1l-20.3-16.7c0 .4 10 30.8 22.1 67.8 20.8 63.2 22.2 67.7 22.6 76.3.8 15-3.4 26-13.8 35.9-6.7 6.4-15.8 11-24.4 12.3-6.9 1.1-185-6-195-7.7-8.4-1.5-17.2-6.1-23.3-12.3-6.3-6.4-8.5-9.6-11.5-16.8-2.1-5.3-2.2-6.8-2.7-48.5l-.5-43-8.5-.6c-4.7-.4-8.6-.6-8.7-.5s-.7 6.2-1.2 13.6c-.5 7.6-1.7 15.9-2.7 19-1.1 3-35.2 62.1-77.7 134.5l-80.9 134.2c-18 18.3-47.7 18.5-65.6.5-13.9-14-131.2-140.2-133.4-143.6-3.2-4.8-6.4-14-7.3-21.1-.8-6.3 1.6-18.3 4.8-24.5 4.1-7.7 148.7-228.3 152-231.9 5.2-5.4 14.3-10.8 21.6-12.7l6.7-1.7 16.8-157.1L284.7 752c3.1-11.4 10-21.1 19-26.8 5.2-3.3 125.2-55.3 131.8-57.1 5.8-1.6 17.3-1.3 23.6.5 7.4 2.2 11.9 4.6 18.4 9.9l5.5 4.6 5.2-1.6c4.3-1.2 12.8-1.5 51.5-1.5 44.3 0 46.6.1 52.6 2.1 14.8 4.9 25.8 16.1 30.2 30.9 1.1 4 2.4 18.9 4.4 53.8l3.3 48.7c.2.3 7-5.6 14.9-13 10.8-10.1 16.1-14.4 21.4-17 8.2-4.1 16.8-5.9 24.4-5.2 3 .3 25.8 6.5 50.8 13.8l45.8 12.7c.2-.2 1.1-7.2 1.9-15.6 1.8-17 3.8-24 9.3-32.1 3.7-5.3 11-11.9 16.2-14.5 2.6-1.3 70.9-26.6 76.6-28.3 3-.9 3-1.2 5.7-14.9 3.5-17.4 6.7-24.2 15.4-32.3 7.1-6.7 14.2-10.4 22.9-12 3.3-.6 27.2-3.1 53.1-5.6 50.4-4.8 52.4-4.8 63.4-.6 10.5 4.1 20.5 13.6 24.6 23.5 1.5 3.7 2.4 4.6 4.4 4.6 1.4 0 48.2-1.6 104-3.4l107-2.5c18.1 3.4 33.3 18.3 37.1 36.7.8 4.2 1.4 5.2 2.6 4.8.9-.4 9.5-2.9 19.2-5.8 23-6.7 30.7-7.2 43.1-2.9 4.7 1.6 8.7 2.7 8.9 2.5s-7.8-22.3-17.9-49.1c-16.3-43.6-18.3-49.6-18.7-56.3-1-14.9 3.6-27 14.1-36.8 12.3-11.5 27.7-15.7 42.9-11.7zm119.2 48.1c68.4 6.2 133.9 23.3 187.5 49 15 7.2 40 21.2 40 22.3 0 .5-54.1 32.3-72 42.3l-6.6 3.7-7.9-6.5c-32-26.1-78.8-49.9-127.1-64.6-6-1.8-11.5-3.7-12.1-4.1-1-.6-26.9-32.4-35.7-43.6-1.2-1.5 3.3-1.3 33.9 1.5zm-188.3 12.1l2.3 7.9c.6 2 .3 2.1-14.2 2.8-39 1.8-87.2 8.3-127.5 17.1-8.8 1.9-16.3 3.4-16.5 3.2-.7-.7 43.2-13.7 64.7-19.1 33.5-8.5 76.8-17.3 86-17.5 3.5-.1 3.6 0 5.2 5.6zm533.3 214.1c17.4 77.2-8 161-73 240.3-5.3 6.5-10 11.9-10.4 11.9-.6 0-42.2-114.6-42.4-117.3-.3-2.5 121.6-148.7 122.6-147 .5.7 1.9 6.2 3.2 12.1zm-250.6 340l23.1 29.7c0 .2-6.4 4-14.2 8.5-99.7 56.6-219.4 94.2-339 106.5-8.7.9-16.6 1.5-17.5 1.3-1.1-.2 14.1-11.3 39.8-29l41.7-28.8 12.8-3.9c60.2-18.6 118.6-44.2 168-73.7 15.5-9.2 40.7-25.9 52.4-34.7 4.7-3.6 8.8-6.2 9.1-5.8.4.3 11.1 13.8 23.8 29.9zm-672.8 91.7c43.2 14.6 101.9 25.1 153.1 27.2l15.9.6 3.2 6.1c1.7 3.3 6.1 9.2 9.7 12.9l6.4 6.9-5.9-.7c-68.8-8-130.5-25-181.1-50-7.1-3.5-12.7-6.4-12.3-6.4.3-.1 5.2 1.5 11 3.4z"/><path d="M1414 603.3c0 .2 24.9 66.9 55.4 148.2l55.1 148.3c-.1.2-13.3-4.9-29.1-11.3l-28.9-11.5-24 2.5-26.2 2.9c-1.2.2-2.1 0-1.8-.4.2-.3 7.4-5.3 15.9-11 8.6-5.6 15.6-10.8 15.6-11.4 0-3.6-10.3-87.2-10.8-87.7-.4-.4-13.3-5.6-28.8-11.7l-28.1-11-61.7 17.8-62.3 18.4c-.7.6-2.2 14.3-2.2 20.2l-.1 4.2 15.3.7c8.3.4 18.1 1 21.7 1.4l6.5.6 2.6 51 2.6 51-29.3 59.5-29.4 60.5c0 1.2 60.5 34.8 61.8 34.3.5-.1 10.1-10 21.2-21.8l24.6-26 4.3-4.5 4-38.4 4.4-38.8c.6-.5 116.9 12.7 119 13.5 1.6.6-23.3 27.5-141.5 153.3L1194.5 1261l-2 2.4 3-2.1c1.7-1.1 88.4-61.1 192.9-133.2l190.1-130.9 190.2 240.8c.8.8.1-2-1.5-6.5l-55.7-154.3-51.3-148c.7-.9 44.4-53.6 97.1-117l95.5-115.7c-.1-.2-55.6 32-123.3 71.5l-123 71.8-2.1-2.1c-1.2-1.2-44.3-54.5-95.8-118.5L1414.4 603c-.2 0-.4.1-.4.3zm-33 195.3c0 .8-2.5 7.6-5.5 14.9-3 7.4-5.5 14.3-5.5 15.3 0 1.1 3.3 4.7 8 8.6 4.4 3.8 8 7.6 8 8.5 0 1.7-30.7 23.1-33.3 23.1-3.5 0-3.7-2-3.7-30.5 0-21.9.3-28.5 1.3-29.9 1.3-1.8 25.2-11.2 29-11.5.9 0 1.7.6 1.7 1.5zM986.4 698.3l-42.1 4.1-9.2 49.5-9.8 51.6c-.4 1.4-3.7-4.2-11.7-20.2l-11.1-22.1-32.5 12-33 12.8c-.3.5-3.9 35-8 76.8l-7.4 76 8.9 43.8 9 44.1c.1.3 51.7-23.6 52.3-24.1.1-.2-1.8-19.5-4.3-43.1l-4.2-43.2c.3-.2 7.7 9.2 16.7 20.9 8.9 11.7 16.6 21.5 17.1 21.7 1.2.4 47-10.9 48.1-11.8.5-.4 3.3-22.9 6.4-50.1l5.7-49.5 28.7-76.8 28.8-76.7-3.2.1c-1.7.1-22 2-45.2 4.2zm-597.9 39.9l-58.7 25.6c-.3.4-9.4 83.3-20.3 184.2l-20.9 184.8c-1 1-4.2-.2-17.3-6.7-12-5.9-16.4-7.7-17.1-6.8-3.1 3.9-143.2 219.1-143 219.7.2.3 28.6 30.9 63.3 67.8 49.6 53 63.2 67 64.1 66 .6-.7 33.9-57.1 74-125.2l72.7-123.9 7-131.1 8-132.3c.9-.9 3.4-.7 10.5.6 5.1 1 9.7 2.2 10.2 2.7.7.7-6.8 146.9-9.4 183.4-.3 4.2-.2 8.1.2 8.7.8 1.2 63.6 6.8 65.3 5.8.5-.4.9-19.1.9-47.4 0-35 .3-47 1.2-47.9 1.2-1.2 13.4-1.7 16.2-.6 1.4.6 1.6 11 1.6 108.5V1282h4.8c2.6 0 42.7 1.6 89.1 3.6l84.6 3.2c.2-.2-17.5-55.1-39.4-121.9l-39.8-121.6-8.7-152.9-9.3-159.7-.6-6.7h-38.6-38.7l-14.9 42.5-15.1 42.2c-.2-.2-5.6-22.1-11.9-48.7l-11.8-48.6c-.1-.1-26.3 11-58.2 24.8zm777.6-15.6l-95.7 3.6c-.6.6-7 85.8-6.4 85.8.3 0 23-4.1 50.4-9l50.2-8.7c.1.1-2.5 18.6-5.8 41l-5.5 41.4c.3.2 7.1-1 15.2-2.7 8-1.8 14.9-3 15.1-2.7.5.4-15.4 125.8-17.1 135l-.5 2.8 13.7-.3 13.7-.3 23.3-29 27.3-34 3.8-5 9.2-52.3 8.7-52.8c-.2-.3-12-1.3-26.2-2.4l-26-2.2c-.8-.8-6.4-48.3-5.7-48.6.4-.1 17.6-7.3 38.2-16l37.5-15.7.3-15.8.3-15.7-11.3.1c-6.2.1-54.2 1.6-106.7 3.5zM656 855.7l-37.3 34.8-6.7 6.3 10 73.3c9.3 68.1 10.2 73.5 12.3 75.3l55 46.5 53.8 44.9c.7.3 26.7-23.4 60.6-55.2l2.3-2.1-8.1-46.5-8-50c0-1.9 3.6-30 8-62.5l7.6-59.4c-.7-.7-115.9-34.1-117.5-34-.8 0-15.2 12.8-32 28.6zm65.3 61.4c11.8 4.7 18.3 7.9 19.2 9.3 1.1 1.8.8 4.7-2.1 20.8L735 966l11.5 23c6.3 12.6 11.5 23.5 11.5 24.1 0 2.4-12.2 20.8-14.1 21.4-2.7.9-56.7-28.9-57.9-31.9-.5-1.2-3-16.9-5.5-35.1l-4.6-32.9 12.4-12.3c6.8-6.8 13-12.3 13.8-12.3s9.4 3.2 19.2 7.1zm347-85.2l-55.6 5.1c-1.1 1.3-20.2 137-19.2 137 .5 0 22.5-5.9 48.8-13.1 26.3-7.3 48-12.9 48.4-12.6.7.7-4.6 46.9-5.5 47.9-.7.6-113.2 12.8-118.4 12.8H964v-16.6-16.6l-2.2.6-24.3 5.7-22.3 5.4c-.1.1-4.3 19-9.3 42l-9 41.8 11.7 28.9c6.4 15.8 12.2 28.8 12.8 28.7.6 0 48.3-21 106.1-46.7l105-46.7 8.2-68.4 7.8-68.9c-.3-.4-84.2 20.4-94.8 23.4-1.6.5-1.7-.4-1.1-12.8.4-7.3 1-13.7 1.4-14.1s15.9-3.4 34.6-6.5l33.9-5.7 5.1-25 5.8-27.8c.6-2.7.6-2.7-4.6-2.6-2.9.1-30.1 2.2-60.5 4.8z"/></svg>